{"title":"The Silent Partner.1978.DVD.XviD","uid":9973761,"size":1172048612,"categoryP":"video","categoryS":"movies","magnet":"?xt=urn:btih:9c4979abd235e3f89668e1f2673096697585ecea&amp;dn=The+Silent+Partner.1978.DVD.XviD&amp;tr=udp%3A%2F%2Ftracker.openbittorrent.com%3A80&amp;tr=udp%3A%2F%2Fopen.demonii.com%3A1337&amp;tr=udp%3A%2F%2Ftracker.coppersurfer.tk%3A6969&amp;tr=udp%3A%2F%2Fexodus.desync.com%3A6969","seeders":0,"leechers":1,"uploader":"rpessoa","files":2,"time":1397662366,"description":"A timid bank teller anticipates a bank robbery and steals the money himself before the crook arrives. When the sadistic crook realizes he's been fooled, he tracks down the teller and engages him in a cat-and-mouse chase for the cash.\n\nSubs: Portuguese\n &lt;a href=&quot;\nhttp://www.imdb.com/title/tt0078269/&quot; rel=&quot;nofollow&quot; target=&quot;_NEW&quot;&gt;\nhttp://www.imdb.com/title/tt0078269/&lt;/a&gt;\n\nGeneral\nComplete name                            : The_Silent_Partner.avi\nFormat                                   : AVI\nFormat/Info                              : Audio Video Interleave\nFile size                                : 1.09 GiB\nDuration                                 : 1h 45mn\nOverall bit rate                         : 1 479 Kbps\nWriting application                      : VirtualDubMod 1.5.4.1 (build 2178/release)\nWriting library                          : VirtualDubMod build 2178/release\n\nVideo\nID                                       : 0\nFormat                                   : MPEG-4 Visual\nFormat profile                           : Advanced Simple@L5\nFormat settings, BVOP                    : 1\nFormat settings, QPel                    : No\nFormat settings, GMC                     : No warppoints\nFormat settings, Matrix                  : Default (H.263)\nMuxing mode                              : Packed bitstream\nCodec ID                                 : XVID\nCodec ID/Hint                            : XviD\nDuration                                 : 1h 45mn\nBit rate                                 : 1 280 Kbps\nWidth                                    : 656 pixels\nHeight                                   : 352 pixels\nDisplay aspect ratio                     : 1.864\nFrame rate                               : 23.976 fps\nColor space                              : YUV\nChroma subsampling                       : 4:2:0\nBit depth                                : 8 bits\nScan type                                : Progressive\nCompression mode                         : Lossy\nBits/(Pixel*Frame)                       : 0.231\nStream size                              : 967 MiB (87%)\nWriting library                          : XviD 0039 build=2005.09.25 (UTC 2005-09-25)\n\nAudio\nID                                       : 1\nFormat                                   : AC-3\nFormat/Info                              : Audio Coding 3\nMode extension                           : CM (complete main)\nCodec ID                                 : 2000\nDuration                                 : 1h 45mn\nBit rate mode                            : Constant\nBit rate                                 : 192 Kbps\nChannel(s)                               : 2 channels\nChannel positions                        : Front: L R\nSampling rate                            : 48.0 KHz\nBit depth                                : 16 bits\nCompression mode                         : Lossy\nStream size                              : 145 MiB (13%)\nAlignment                                : Split accross interleaves\nInterleave, duration                     : 83 ms (2.00 video frames)\nInterleave, preload duration             : 500 ms\nLanguage                                 : English","torrent":{"xt":"urn:btih:9c4979abd235e3f89668e1f2673096697585ecea","amp;dn":"The+Silent+Partner.1978.DVD.XviD","amp;tr":["udp%3A%2F%2Ftracker.openbittorrent.com%3A80","udp%3A%2F%2Fopen.demonii.com%3A1337","udp%3A%2F%2Ftracker.coppersurfer.tk%3A6969","udp%3A%2F%2Fexodus.desync.com%3A6969"],"infoHash":"9c4979abd235e3f89668e1f2673096697585ecea","infoHashBuffer":{"type":"Buffer","data":[156,73,121,171,210,53,227,248,150,104,225,242,103,48,150,105,117,133,236,234]},"announce":[],"urlList":[]}}